<svg version="1.1" id="Layer_1" xmlns="http://www.w3.org/2000/svg" xmlns:xlink="http://www.w3.org/1999/xlink" x="0px" y="0px"
	 width="100%" viewBox="0 0 225 225" enable-background="new 0 0 225 225" xml:space="preserve">
<path fill="#FDFDFD" opacity="1.000000" stroke="none" 
	d="
M226.000000,82.000000 
	C226.000000,130.333328 226.000000,178.166672 226.000000,226.000000 
	C151.000000,226.000000 76.000000,226.000000 1.000000,226.000000 
	C1.000000,151.000000 1.000000,76.000000 1.000000,1.000000 
	C76.000000,1.000000 151.000000,1.000000 226.000000,1.000000 
	C226.000000,27.833334 226.000000,54.666668 226.000000,82.000000 
M68.499992,223.949051 
	C108.165382,223.949203 147.830872,224.001831 187.496124,223.927277 
	C207.154083,223.890320 217.012894,213.998184 217.068222,194.452454 
	C217.123901,174.786575 217.081161,155.120438 217.080551,135.454407 
	C217.079529,102.788826 217.144623,70.123039 217.048737,37.457733 
	C216.998917,20.484823 206.520966,10.072511 189.687469,9.931670 
	C185.021317,9.892630 180.348831,9.783665 175.689896,9.971346 
	C171.846863,10.126159 168.248566,11.134320 167.821747,15.850713 
	C167.485397,19.567404 171.131165,23.081995 175.596298,23.340500 
	C179.250870,23.552080 182.926361,23.399378 186.592545,23.414335 
	C198.938995,23.464705 203.532028,27.985535 203.536972,40.278732 
	C203.557556,91.443710 203.447800,142.609055 203.630722,193.773392 
	C203.665970,203.636093 198.816696,210.298279 187.222351,210.189758 
	C148.227051,209.824753 109.226204,210.053345 70.227486,210.049301 
	C60.227951,210.048264 50.227196,210.120071 40.229218,209.989243 
	C29.774670,209.852417 23.462267,203.474823 23.459848,193.220398 
	C23.447819,142.222076 23.446095,91.223740 23.460396,40.225410 
	C23.463837,27.957512 28.041534,23.459616 40.447834,23.415344 
	C45.114193,23.398691 49.783695,23.504398 54.446163,23.365780 
	C59.287796,23.221832 59.826454,19.455755 59.911758,15.920077 
	C59.996559,12.405600 58.544628,9.817862 54.311893,9.896821 
	C48.647415,10.002486 42.979336,9.897752 37.312984,9.923624 
	C19.706228,10.004016 9.939105,19.825499 9.924885,37.528023 
	C9.901188,67.027039 9.916318,96.526085 9.920143,126.025116 
	C9.923189,149.524292 9.822549,173.024200 9.981449,196.522354 
	C10.081610,211.334259 18.855064,221.717377 33.559441,223.163956 
	C44.790009,224.268784 56.180588,223.747162 68.499992,223.949051 
M64.693398,144.746826 
	C63.527496,144.774414 62.353348,144.723068 61.197201,144.843964 
	C57.320473,145.249344 55.191097,147.560715 54.971741,151.326065 
	C54.747154,155.181152 56.826771,157.589706 60.581127,158.404617 
	C61.865112,158.683319 63.223530,158.698975 64.548004,158.699585 
	C97.214180,158.714630 129.880356,158.714081 162.546539,158.702225 
	C163.873703,158.701752 165.236313,158.731918 166.521210,158.459320 
	C170.211716,157.676376 172.482712,155.470337 172.276276,151.529999 
	C172.077896,147.743240 170.022949,145.339630 166.142181,144.853455 
	C164.663025,144.668137 163.147400,144.750458 161.648407,144.750244 
	C129.648880,144.745712 97.649361,144.746796 64.693398,144.746826 
M165.981659,117.102272 
	C170.331894,116.529976 172.620773,114.021660 172.200500,109.672577 
	C171.779953,105.320763 168.765427,103.499878 164.657761,103.205597 
	C163.994720,103.158089 163.325500,103.195969 162.659134,103.195969 
	C130.007019,103.196007 97.354904,103.185257 64.702850,103.225868 
	C62.897774,103.228119 60.465431,103.012260 59.424530,104.026413 
	C57.502193,105.899323 55.092968,108.742249 55.315907,110.933937 
	C55.538902,113.126198 58.506756,115.335648 60.719822,116.905365 
	C61.844086,117.702827 63.954941,117.139915 65.619797,117.140167 
	C98.771675,117.145119 131.923553,117.142494 165.981659,117.102272 
M122.499992,79.039581 
	C136.164337,79.039574 149.828705,79.052155 163.493011,79.033661 
	C169.342682,79.025742 172.408020,76.546448 172.325455,71.980583 
	C172.243683,67.458664 169.178284,65.063057 163.257309,65.059792 
	C130.096313,65.041504 96.935295,65.041069 63.774307,65.060318 
	C57.986469,65.063675 54.831062,67.663353 54.925007,72.182579 
	C55.018089,76.660446 58.131348,79.032234 64.009804,79.035538 
	C83.173195,79.046310 102.336594,79.039581 122.499992,79.039581 
M79.153831,15.418256 
	C80.879730,24.483805 83.869545,27.024071 92.837067,27.026094 
	C106.973236,27.029284 121.109413,27.034996 135.245575,27.023672 
	C143.321625,27.017202 147.983200,22.657490 148.013901,15.124372 
	C148.044388,7.639417 143.255890,3.027333 135.321579,3.010447 
	C121.185471,2.980361 107.049255,2.996901 92.913086,3.003830 
	C84.082283,3.008158 80.902763,5.699309 79.153831,15.418256 
z"/>
<path fill="#020202" opacity="1.000000" stroke="none" 
	d="
M67.999985,223.949051 
	C56.180588,223.747162 44.790009,224.268784 33.559441,223.163956 
	C18.855064,221.717377 10.081610,211.334259 9.981449,196.522354 
	C9.822549,173.024200 9.923189,149.524292 9.920143,126.025116 
	C9.916318,96.526085 9.901188,67.027039 9.924885,37.528023 
	C9.939105,19.825499 19.706228,10.004016 37.312984,9.923624 
	C42.979336,9.897752 48.647415,10.002486 54.311893,9.896821 
	C58.544628,9.817862 59.996559,12.405600 59.911758,15.920077 
	C59.826454,19.455755 59.287796,23.221832 54.446163,23.365780 
	C49.783695,23.504398 45.114193,23.398691 40.447834,23.415344 
	C28.041534,23.459616 23.463837,27.957512 23.460396,40.225410 
	C23.446095,91.223740 23.447819,142.222076 23.459848,193.220398 
	C23.462267,203.474823 29.774670,209.852417 40.229218,209.989243 
	C50.227196,210.120071 60.227951,210.048264 70.227486,210.049301 
	C109.226204,210.053345 148.227051,209.824753 187.222351,210.189758 
	C198.816696,210.298279 203.665970,203.636093 203.630722,193.773392 
	C203.447800,142.609055 203.557556,91.443710 203.536972,40.278732 
	C203.532028,27.985535 198.938995,23.464705 186.592545,23.414335 
	C182.926361,23.399378 179.250870,23.552080 175.596298,23.340500 
	C171.131165,23.081995 167.485397,19.567404 167.821747,15.850713 
	C168.248566,11.134320 171.846863,10.126159 175.689896,9.971346 
	C180.348831,9.783665 185.021317,9.892630 189.687469,9.931670 
	C206.520966,10.072511 216.998917,20.484823 217.048737,37.457733 
	C217.144623,70.123039 217.079529,102.788826 217.080551,135.454407 
	C217.081161,155.120438 217.123901,174.786575 217.068222,194.452454 
	C217.012894,213.998184 207.154083,223.890320 187.496124,223.927277 
	C147.830872,224.001831 108.165382,223.949203 67.999985,223.949051 
z"/>
<path fill="#070707" opacity="1.000000" stroke="none" 
	d="
M65.171616,144.746811 
	C97.649361,144.746796 129.648880,144.745712 161.648407,144.750244 
	C163.147400,144.750458 164.663025,144.668137 166.142181,144.853455 
	C170.022949,145.339630 172.077896,147.743240 172.276276,151.529999 
	C172.482712,155.470337 170.211716,157.676376 166.521210,158.459320 
	C165.236313,158.731918 163.873703,158.701752 162.546539,158.702225 
	C129.880356,158.714081 97.214180,158.714630 64.548004,158.699585 
	C63.223530,158.698975 61.865112,158.683319 60.581127,158.404617 
	C56.826771,157.589706 54.747154,155.181152 54.971741,151.326065 
	C55.191097,147.560715 57.320473,145.249344 61.197201,144.843964 
	C62.353348,144.723068 63.527496,144.774414 65.171616,144.746811 
z"/>
<path fill="#050505" opacity="1.000000" stroke="none" 
	d="
M165.528549,117.121841 
	C131.923553,117.142494 98.771675,117.145119 65.619797,117.140167 
	C63.954941,117.139915 61.844086,117.702827 60.719822,116.905365 
	C58.506756,115.335648 55.538902,113.126198 55.315907,110.933937 
	C55.092968,108.742249 57.502193,105.899323 59.424530,104.026413 
	C60.465431,103.012260 62.897774,103.228119 64.702850,103.225868 
	C97.354904,103.185257 130.007019,103.196007 162.659134,103.195969 
	C163.325500,103.195969 163.994720,103.158089 164.657761,103.205597 
	C168.765427,103.499878 171.779953,105.320763 172.200500,109.672577 
	C172.620773,114.021660 170.331894,116.529976 165.528549,117.121841 
z"/>
<path fill="#020202" opacity="1.000000" stroke="none" 
	d="
M121.999985,79.039581 
	C102.336594,79.039581 83.173195,79.046310 64.009804,79.035538 
	C58.131348,79.032234 55.018089,76.660446 54.925007,72.182579 
	C54.831062,67.663353 57.986469,65.063675 63.774307,65.060318 
	C96.935295,65.041069 130.096313,65.041504 163.257309,65.059792 
	C169.178284,65.063057 172.243683,67.458664 172.325455,71.980583 
	C172.408020,76.546448 169.342682,79.025742 163.493011,79.033661 
	C149.828705,79.052155 136.164337,79.039574 121.999985,79.039581 
z"/>
<path fill="#010101" opacity="1.000000" stroke="none" 
	d="
M79.147179,15.021054 
	C80.902763,5.699309 84.082283,3.008158 92.913086,3.003830 
	C107.049255,2.996901 121.185471,2.980361 135.321579,3.010447 
	C143.255890,3.027333 148.044388,7.639417 148.013901,15.124372 
	C147.983200,22.657490 143.321625,27.017202 135.245575,27.023672 
	C121.109413,27.034996 106.973236,27.029284 92.837067,27.026094 
	C83.869545,27.024071 80.879730,24.483805 79.147179,15.021054 
z"/>
</svg>