<svg version="1.1" id="Layer_1" xmlns="http://www.w3.org/2000/svg" xmlns:xlink="http://www.w3.org/1999/xlink" x="0px" y="0px"
	 width="100%" viewBox="0 0 666 375" enable-background="new 0 0 666 375" xml:space="preserve">
<path fill="#000000" opacity="1.000000" stroke="none" 
	d="
M385.000000,376.000000 
	C256.697357,376.000000 128.894684,376.000000 1.046014,376.000000 
	C1.046014,251.060684 1.046014,126.121353 1.046014,1.091008 
	C222.886017,1.091008 444.772064,1.091008 666.829102,1.091008 
	C666.829102,125.999817 666.829102,250.999878 666.829102,376.000000 
	C573.121277,376.000000 479.310638,376.000000 385.000000,376.000000 
M199.996780,253.993393 
	C199.996780,253.993393 199.970230,254.027222 200.159332,254.468796 
	C200.510361,254.302414 200.861374,254.136032 201.569092,253.981277 
	C201.569092,253.981277 201.903366,253.856232 202.853455,253.985306 
	C235.916885,253.937546 268.980316,253.889801 302.836090,253.964767 
	C306.782135,254.199966 307.936157,252.061874 308.033386,248.440170 
	C308.230225,241.111237 308.726776,233.790359 309.099731,226.466156 
	C308.722107,226.138016 308.344482,225.809875 307.966888,225.481750 
	C306.956726,226.358963 305.803223,227.117401 304.960968,228.133774 
	C301.137665,232.747269 297.832794,237.885361 293.531250,241.984619 
	C287.506897,247.725601 279.211548,248.391968 271.502197,248.812683 
	C259.377869,249.474319 247.188477,248.943344 234.702118,248.344879 
	C233.850937,248.247665 232.999756,248.150467 232.108505,247.863342 
	C232.108505,247.863342 231.914566,247.855148 231.816193,247.442734 
	C231.649902,247.186859 231.414444,247.048386 231.100449,246.932465 
	C231.100449,246.932465 231.005539,246.941254 230.718018,246.281845 
	C229.802719,244.130371 228.887421,241.978897 227.975754,239.426636 
	C227.975754,239.426636 227.850998,239.045731 227.986740,238.106613 
	C228.007477,230.957367 227.934601,223.806107 228.089600,216.659775 
	C228.163849,213.237167 226.844589,211.833328 223.389008,211.982697 
	C219.240326,212.162003 215.070816,211.889786 210.926193,212.110504 
	C209.922333,212.163956 208.980621,213.384354 208.000198,214.995239 
	C207.669281,222.529968 207.579926,230.085968 206.918869,237.591629 
	C206.507370,242.263931 205.573395,246.967941 200.236481,249.135513 
	C199.439636,249.459137 199.397552,251.641068 199.104309,253.495636 
	C199.402100,253.675858 199.699890,253.856079 199.996780,253.993393 
M423.946503,104.462517 
	C423.626617,104.278870 423.306732,104.095222 423.029480,103.992081 
	C423.029480,103.992081 423.109955,103.949356 422.828857,103.350708 
	C421.888336,102.861053 420.947815,102.371399 419.865509,101.449593 
	C419.687042,101.176315 419.435608,101.021881 418.827637,100.339615 
	C416.556519,99.284775 414.285370,98.229935 411.353577,96.844711 
	C406.961243,95.559273 402.568939,94.273834 397.674835,92.313309 
	C391.520416,91.546638 385.375793,90.227798 379.209686,90.118210 
	C361.653839,89.806160 344.089111,89.958542 326.528381,90.040993 
	C325.421082,90.046196 324.318268,91.018539 323.213348,91.540924 
	C323.776611,92.725365 324.339844,93.909805 324.980194,95.044548 
	C324.980194,95.044548 324.890259,95.062263 325.203461,95.665558 
	C327.134216,97.146843 329.064941,98.628128 331.038910,100.548943 
	C331.038910,100.548943 331.202759,100.959068 331.083618,101.612808 
	C331.385986,102.130173 331.688354,102.647537 332.038116,103.571121 
	C332.038116,103.571121 332.183380,103.953445 332.050323,104.818604 
	C332.352753,107.244392 332.655182,109.670174 333.009918,112.742889 
	C333.073242,113.169220 333.136597,113.595551 333.065338,114.881172 
	C333.107605,116.903046 333.149902,118.924911 333.070038,121.883766 
	C333.134003,143.223572 333.197968,164.563385 332.815735,186.133362 
	C332.494720,187.718597 332.173706,189.303848 331.714783,191.186737 
	C331.627716,191.514526 331.668976,191.829117 332.106934,192.543259 
	C331.330780,194.293015 330.554626,196.042755 329.778473,197.792511 
	C329.191193,198.097580 328.603943,198.402649 328.016663,198.707718 
	C329.666931,199.761673 331.317230,200.815628 333.036041,202.821167 
	C332.690094,213.863480 332.101501,224.905701 332.097656,235.948135 
	C332.095642,241.714493 330.369232,245.974503 325.354858,249.009155 
	C323.560211,250.095261 321.199677,251.908981 325.914398,253.945908 
	C336.950958,253.970139 347.987640,254.028000 359.023834,253.974915 
	C360.362183,253.968491 361.697662,253.363937 363.002441,253.000610 
	C363.002441,253.000610 363.039093,253.035156 363.475189,252.839401 
	C363.305725,252.492157 363.136230,252.144897 362.969727,251.434341 
	C362.969727,251.434341 362.840607,251.094742 362.961273,250.437637 
	C362.610413,250.012436 362.259552,249.587234 361.271973,248.804031 
	C359.508087,247.019608 357.306580,245.485886 356.101105,243.381546 
	C354.849640,241.196915 354.562073,238.460083 353.983612,235.041931 
	C353.994598,228.927216 354.135742,222.809128 353.978241,216.698761 
	C353.834625,211.128098 353.367157,205.565781 353.667450,199.892761 
	C354.449982,199.239334 355.890961,198.586746 355.891754,197.932358 
	C355.894226,195.955490 355.337524,193.977921 355.000000,192.000000 
	C355.000000,192.000000 355.001221,191.999390 355.608276,191.805603 
	C356.395813,190.880264 357.183350,189.954926 357.993561,189.005188 
	C357.993561,189.005188 358.011749,188.978394 358.340912,188.660538 
	C356.874298,187.781677 355.407654,186.902832 353.920746,185.083557 
	C353.895386,180.440201 353.870026,175.796860 354.233978,170.762344 
	C354.489624,170.498154 354.745239,170.233948 355.723297,170.133514 
	C364.077240,170.423096 372.114288,170.604614 380.574493,173.100037 
	C388.168976,175.340073 391.182739,179.826569 394.458130,185.583557 
	C395.914856,187.396332 397.371613,189.209122 399.129333,191.695175 
	C400.091370,193.825211 401.053406,195.955261 402.025208,197.986069 
	C402.025208,197.986069 401.925995,197.976120 402.061005,198.678833 
	C402.692169,199.851303 403.323334,201.023773 403.971252,202.960617 
	C408.274292,213.319290 412.577301,223.677963 416.994751,234.768875 
	C418.998627,238.243317 421.002502,241.717743 423.025604,245.503525 
	C423.025604,245.503525 423.134460,245.795853 423.035431,246.445648 
	C423.682709,246.995087 424.329987,247.544525 424.972687,248.016388 
	C424.972687,248.016388 424.895111,248.021164 424.980438,248.723160 
	C425.646210,249.176926 426.311951,249.630707 426.994965,250.014786 
	C426.994965,250.014786 426.925262,249.997650 427.078735,250.530640 
	C427.386627,250.714462 427.694489,250.898270 427.986572,251.014969 
	C427.986572,251.014969 427.920471,251.034622 428.211548,251.696701 
	C430.524872,252.792145 432.779175,254.648132 435.163147,254.833130 
	C441.097076,255.293579 447.100037,255.185074 453.052948,254.875504 
	C454.736511,254.787979 456.343079,253.219803 457.984924,252.330688 
	C456.352081,251.270950 454.719238,250.211197 452.384674,249.199738 
	C446.571289,250.213318 443.946075,245.441711 442.219360,241.916733 
	C436.933319,231.125748 432.800171,219.776245 427.930756,208.771332 
	C426.317596,205.125549 426.266968,200.485168 422.086029,197.583145 
	C421.118683,194.392563 420.151337,191.201981 419.037048,187.366806 
	C418.365051,186.295914 417.693024,185.225021 416.468475,183.836273 
	C414.703278,182.218704 412.938049,180.601151 410.802155,178.375031 
	C405.537537,175.300537 400.272919,172.226028 394.652130,168.943542 
	C405.967377,164.896042 416.314545,161.605698 423.551147,151.842575 
	C424.062500,151.232437 424.573853,150.622299 425.016174,150.008698 
	C425.016174,150.008698 425.016235,150.077820 425.604675,149.808914 
	C425.762970,149.192093 425.921265,148.575256 425.971344,147.987488 
	C425.971344,147.987488 426.000244,148.095703 426.521759,147.905457 
	C426.623749,147.579254 426.725708,147.253052 427.074615,146.427811 
	C427.398315,145.985382 427.722015,145.542953 428.623627,144.816238 
	C428.695557,144.200378 428.767517,143.584503 428.971405,142.575439 
	C428.971405,142.575439 428.999786,142.161652 429.665802,141.730515 
	C431.801727,134.878418 433.362793,127.989853 430.966980,120.436615 
	C430.966980,120.436615 430.826324,120.045357 430.956696,119.284035 
	C430.636414,118.133881 430.316101,116.983727 429.975800,115.424103 
	C429.975800,115.424103 429.839508,115.037468 429.895386,114.516014 
	C429.620331,114.324036 429.345245,114.132065 428.998077,113.238754 
	C427.611298,111.163719 426.224518,109.088676 424.962097,106.381126 
	C424.655762,105.880676 424.349426,105.380226 424.006500,104.977104 
	C424.006500,104.977104 424.103882,105.013565 423.946503,104.462517 
M229.646011,103.801651 
	C229.712448,103.152168 229.778900,102.502678 229.960754,101.513550 
	C229.960754,101.513550 229.960602,101.154831 230.555435,100.777962 
	C232.428162,98.882080 234.300873,96.986191 236.105621,95.085732 
	C236.105621,95.085732 236.129044,95.149681 236.787033,94.774025 
	C239.490921,91.371117 237.942154,90.006386 234.329742,89.986862 
	C223.407364,89.927811 212.483536,89.923004 201.562836,90.078362 
	C200.393005,90.095001 199.240128,91.302498 198.079376,91.957588 
	C199.045074,92.990410 200.010773,94.023232 201.312592,95.676353 
	C206.095566,97.682632 206.045486,102.299370 206.963760,106.330048 
	C207.535995,108.841759 207.768463,111.430870 208.017090,114.918152 
	C208.066605,132.937592 208.116119,150.957047 208.021454,169.731430 
	C208.348404,170.867767 208.675354,172.004089 209.374954,173.652451 
	C209.923981,174.780350 210.473022,175.908264 210.489624,177.405441 
	C209.769226,178.937988 209.048813,180.470551 207.980011,182.635361 
	C207.702591,183.864304 207.196640,185.091064 207.184998,186.322525 
	C207.111542,194.093063 207.147751,201.864639 207.147751,209.852249 
	C208.364777,209.852249 209.160110,209.852249 210.887375,210.002716 
	C216.462646,210.002716 222.037918,210.002716 227.497406,210.002716 
	C227.991013,206.279846 228.396332,203.222809 229.259430,199.687912 
	C229.632736,198.813187 230.402222,197.894257 230.310394,197.071426 
	C229.925064,193.618118 229.281952,190.193558 228.787918,185.931335 
	C228.535049,183.332779 228.096832,180.736740 228.061600,178.135223 
	C227.913132,167.179199 227.884964,156.221527 227.825333,144.548706 
	C228.551636,141.030396 229.277954,137.512085 230.037888,134.056702 
	C230.037888,134.056702 229.993011,134.004898 230.010590,133.414886 
	C229.821609,132.707077 229.632629,131.999252 228.914764,130.571304 
	C228.873688,125.414444 228.832596,120.257584 228.899170,114.169167 
	C228.957504,110.762672 229.015839,107.356171 228.977432,104.022583 
	C228.977432,104.022583 229.050262,104.119385 229.646011,103.801651 
M257.497742,184.857208 
	C259.501678,185.721115 258.741577,191.134262 263.026825,188.232040 
	C266.663940,185.768784 270.280884,183.275772 273.878967,180.814926 
	C272.740540,176.189163 271.532654,171.399231 270.407990,166.589859 
	C270.229187,165.825317 270.502014,164.966766 270.434570,164.162689 
	C270.036377,159.412552 269.599365,154.665680 269.175385,149.917709 
	C268.372498,149.785782 267.569611,149.653854 266.766724,149.521927 
	C265.861908,151.337585 264.403107,153.084106 264.166107,154.983093 
	C263.652679,159.097366 262.562653,162.410614 259.044067,165.215149 
	C252.970093,170.056458 252.398041,178.288773 257.497742,184.857208 
M330.498779,193.531555 
	C330.498779,193.531555 330.477631,193.477997 330.498779,193.531555 
z"/>
<path fill="#BE8A50" opacity="1.000000" stroke="none" 
	d="
M419.111206,100.986282 
	C419.435608,101.021881 419.687042,101.176315 420.078766,101.967361 
	C421.231323,102.973213 422.170654,103.461288 423.109955,103.949356 
	C423.109955,103.949356 423.029480,103.992081 423.177002,104.152649 
	C423.584320,104.546661 423.844086,104.780113 424.103882,105.013565 
	C424.103882,105.013565 424.006500,104.977104 424.077362,105.211060 
	C424.378052,105.967896 424.607880,106.490776 424.837708,107.013641 
	C426.224518,109.088676 427.611298,111.163719 429.154175,113.776741 
	C429.472656,114.565933 429.649048,114.806847 429.839508,115.037468 
	C429.839508,115.037468 429.975800,115.424103 429.988617,115.993248 
	C430.276398,117.723381 430.551361,118.884369 430.826324,120.045357 
	C430.826324,120.045357 430.966980,120.436615 430.974243,121.103279 
	C430.320923,128.567184 429.660339,135.364410 428.999786,142.161652 
	C428.999786,142.161652 428.971405,142.575439 428.761963,143.021423 
	C428.383575,144.011780 428.214630,144.556137 428.045685,145.100510 
	C427.722015,145.542953 427.398315,145.985382 426.794800,146.859650 
	C426.323273,147.546692 426.151703,147.814774 426.000244,148.095703 
	C426.000244,148.095703 425.971344,147.987488 425.854675,148.218048 
	C425.497406,148.991669 425.256805,149.534744 425.016235,150.077820 
	C425.016235,150.077820 425.016174,150.008698 424.765564,150.124603 
	C424.007355,150.853195 423.499786,151.465866 422.992188,152.078522 
	C416.314545,161.605698 405.967377,164.896042 394.652130,168.943542 
	C400.272919,172.226028 405.537537,175.300537 410.884705,179.000732 
	C409.878601,181.545197 408.789978,183.463974 407.701355,185.382767 
	C407.963318,185.556168 408.225311,185.729553 408.487305,185.902954 
	C409.490295,184.956512 410.493286,184.010071 411.883057,182.698669 
	C412.396545,184.370926 412.750458,185.523514 413.004883,186.352051 
	C406.445099,189.792343 400.610443,187.553223 394.792694,185.130035 
	C391.182739,179.826569 388.168976,175.340073 380.574493,173.100037 
	C372.114288,170.604614 364.077240,170.423096 355.138458,169.835022 
	C355.359528,168.028809 356.165466,166.521103 357.441620,165.053986 
	C364.241425,165.069153 370.660889,165.694641 376.875610,164.836868 
	C383.207428,163.962921 389.926605,162.713928 395.439270,159.719925 
	C408.731812,152.500519 411.621094,139.978577 409.915161,125.952736 
	C409.106293,119.302345 406.607941,112.976768 401.778442,108.515556 
	C388.173584,95.948143 371.617523,94.203133 353.977783,96.411270 
	C353.977783,118.663254 353.977783,140.346466 353.826294,162.332245 
	C350.468048,168.463547 346.903961,174.130188 344.164429,180.170792 
	C341.856476,185.259781 338.476562,186.994110 333.261963,185.903198 
	C333.197968,164.563385 333.134003,143.223572 333.270630,121.088013 
	C333.380798,118.202126 333.290375,116.112007 333.199951,114.021881 
	C333.136597,113.595551 333.073242,113.169220 332.998230,111.993355 
	C332.718781,108.813698 332.451080,106.383575 332.183350,103.953445 
	C332.183380,103.953445 332.038116,103.571121 331.959656,103.078003 
	C331.655060,102.042946 331.428925,101.500999 331.202759,100.959061 
	C331.202759,100.959068 331.038910,100.548943 330.981293,99.959305 
	C328.912537,97.933861 326.901398,96.498062 324.890259,95.062263 
	C324.890259,95.062263 324.980194,95.044548 325.100922,94.719193 
	C326.562439,93.601440 327.879486,92.169891 329.247772,92.119102 
	C339.011536,91.756638 348.790436,91.404053 358.555542,91.571854 
	C371.766754,91.798866 384.969971,92.494057 398.176605,92.988396 
	C402.568939,94.273834 406.961243,95.559273 411.888123,97.273987 
	C414.652191,98.797607 416.881683,99.891945 419.111206,100.986282 
z"/>
<path fill="#BF8A50" opacity="1.000000" stroke="none" 
	d="
M199.006317,252.963333 
	C199.397552,251.641068 199.439636,249.459137 200.236481,249.135513 
	C205.573395,246.967941 206.507370,242.263931 206.918869,237.591629 
	C207.579926,230.085968 207.669281,222.529968 208.407440,214.424133 
	C212.428009,213.573608 216.039627,213.090408 219.655029,213.060349 
	C225.801620,213.009216 226.750763,214.137848 226.970795,220.302704 
	C227.193878,226.552887 227.552017,232.798248 227.850998,239.045731 
	C227.850998,239.045731 227.975754,239.426636 227.968994,240.058243 
	C228.251190,243.126831 227.185547,246.223251 231.005539,246.941254 
	C231.005539,246.941254 231.100449,246.932465 231.235443,247.118301 
	C231.550354,247.489258 231.731720,247.672928 231.914566,247.855148 
	C231.914566,247.855148 232.108505,247.863342 232.384888,248.108978 
	C233.449722,248.542175 234.238174,248.729752 235.026627,248.917328 
	C247.188477,248.943344 259.377869,249.474319 271.502197,248.812683 
	C279.211548,248.391968 287.506897,247.725601 293.531250,241.984619 
	C297.832794,237.885361 301.137665,232.747269 304.960968,228.133774 
	C305.803223,227.117401 306.956726,226.358963 307.966888,225.481750 
	C308.344482,225.809875 308.722107,226.138016 309.099731,226.466156 
	C308.726776,233.790359 308.230225,241.111237 308.033386,248.440170 
	C307.936157,252.061874 306.782135,254.199966 302.058136,253.734833 
	C299.806671,253.324905 298.333374,252.989685 296.859650,252.987808 
	C266.988739,252.949738 237.117783,252.934204 207.246948,252.981522 
	C205.465302,252.984344 203.684540,253.551620 201.903366,253.856232 
	C201.903366,253.856232 201.569092,253.981277 201.079010,253.977356 
	C200.382706,253.991379 200.176468,254.009293 199.970230,254.027222 
	C199.970230,254.027222 199.996780,253.993393 199.852020,253.818329 
	C199.495697,253.393860 199.262054,253.167206 199.006317,252.963333 
z"/>
<path fill="#BF8A50" opacity="1.000000" stroke="none" 
	d="
M209.002289,173.140427 
	C208.675354,172.004089 208.348404,170.867767 208.251282,168.975891 
	C208.626373,167.572784 208.897018,166.925507 208.898544,166.277573 
	C208.937256,149.971085 208.963715,133.664505 208.928131,117.358070 
	C208.925674,116.233238 208.423309,115.109489 208.153427,113.985245 
	C207.768463,111.430870 207.535995,108.841759 206.963760,106.330048 
	C206.045486,102.299370 206.095566,97.682632 201.208679,95.012497 
	C202.464554,93.413536 203.814407,91.689590 205.185745,91.672318 
	C213.604401,91.566269 222.038437,91.660583 230.441956,92.136536 
	C232.388290,92.246765 234.235962,94.099022 236.129044,95.149681 
	C236.129044,95.149681 236.105621,95.085732 235.755402,95.100555 
	C231.724426,95.446426 229.857056,97.412239 229.960602,101.154831 
	C229.960602,101.154831 229.960754,101.513550 229.745148,101.944763 
	C229.369797,102.957123 229.210037,103.538254 229.050262,104.119385 
	C229.050262,104.119385 228.977432,104.022583 228.848663,104.345360 
	C228.743759,108.145668 228.767639,111.623192 228.791519,115.100723 
	C228.832596,120.257584 228.873688,125.414444 229.023773,131.234009 
	C225.551666,140.088928 222.185333,148.384338 218.316803,156.438522 
	C215.561996,162.173935 212.131332,167.584747 209.002289,173.140427 
z"/>
<path fill="#BF8A50" opacity="1.000000" stroke="none" 
	d="
M353.852966,235.964737 
	C354.562073,238.460083 354.849640,241.196915 356.101105,243.381546 
	C357.306580,245.485886 359.508087,247.019608 361.677643,249.237488 
	C362.335724,250.145554 362.588165,250.620148 362.840607,251.094742 
	C362.840607,251.094742 362.969727,251.434341 362.972717,251.926758 
	C362.996857,252.624496 363.017975,252.829819 363.039093,253.035156 
	C363.039093,253.035156 363.002441,253.000610 362.548218,252.994705 
	C355.642334,252.981064 349.188385,252.863647 342.739655,252.997864 
	C336.817902,253.121109 330.901764,253.515503 324.983154,253.790451 
	C321.199677,251.908981 323.560211,250.095261 325.354858,249.009155 
	C330.369232,245.974503 332.095642,241.714493 332.097656,235.948135 
	C332.101501,224.905701 332.690094,213.863480 333.133484,202.026352 
	C335.081940,198.366348 336.932922,195.501175 338.163757,193.595901 
	C340.635193,195.493011 342.030945,197.156738 343.794159,197.778671 
	C346.420502,198.705002 349.306213,198.895905 352.075623,199.892288 
	C352.370667,209.470657 352.625549,218.558380 353.000488,227.641144 
	C353.115326,230.422668 353.559601,233.190582 353.852966,235.964737 
z"/>
<path fill="#BF8A50" opacity="1.000000" stroke="none" 
	d="
M416.880310,234.036621 
	C412.577301,223.677963 408.274292,213.319290 404.033752,202.249786 
	C404.407501,200.703140 404.718719,199.867294 405.383026,199.038239 
	C409.536438,198.526459 413.336731,198.007874 417.453918,197.446060 
	C418.631744,197.651917 420.345734,197.951508 422.059753,198.251083 
	C426.266968,200.485168 426.317596,205.125549 427.930756,208.771332 
	C432.800171,219.776245 436.933319,231.125748 442.219360,241.916733 
	C443.946075,245.441711 446.571289,250.213318 452.855225,249.474701 
	C455.259766,252.734650 454.147919,253.899368 450.896759,254.026581 
	C443.061310,254.333160 435.290558,254.254013 427.920471,251.034622 
	C427.920471,251.034622 427.986572,251.014969 427.843994,250.840210 
	C427.442688,250.442841 427.183990,250.220245 426.925262,249.997650 
	C426.925262,249.997650 426.994965,250.014786 426.876587,249.761978 
	C426.137177,249.013168 425.516144,248.517166 424.895111,248.021164 
	C424.895111,248.021164 424.972687,248.016388 424.880981,247.765472 
	C424.237640,246.941650 423.686066,246.368744 423.134460,245.795853 
	C423.134460,245.795853 423.025604,245.503525 422.975067,244.951141 
	C421.331085,240.698975 422.177368,235.576126 416.880310,234.036621 
z"/>
<path fill="#BE8A50" opacity="1.000000" stroke="none" 
	d="
M208.328415,182.003098 
	C209.048813,180.470551 209.769226,178.937988 211.095734,177.142166 
	C215.805954,168.927917 219.910049,160.976944 224.180542,152.784302 
	C224.556946,151.998062 224.766968,151.453476 224.982040,150.939880 
	C224.987091,150.970856 224.926361,150.955032 225.245636,151.174072 
	C226.007080,152.252258 226.845535,153.117981 226.831390,153.969559 
	C226.647232,165.066010 226.342209,176.160446 225.913162,187.527496 
	C224.557602,188.885132 223.356491,189.970657 221.874573,191.218094 
	C220.710373,192.550232 219.826996,193.720459 218.951782,194.922424 
	C218.959961,194.954163 218.897049,194.935699 218.614166,194.777527 
	C217.831253,193.935181 217.331238,193.250992 216.850342,192.414200 
	C216.869461,192.261597 217.076645,192.034241 217.320099,191.910461 
	C217.795410,190.858246 218.027252,189.929840 218.243286,188.599457 
	C218.136612,187.672409 218.045776,187.147293 217.770966,186.525635 
	C217.055847,186.498810 216.524734,186.568527 215.904205,186.906921 
	C215.570908,187.458405 215.327011,187.741226 214.896820,188.246826 
	C214.490021,189.002380 214.269516,189.535156 214.030579,190.041565 
	C214.012161,190.015213 214.072037,189.991699 213.884369,190.284302 
	C213.489792,191.239304 213.282883,191.901703 213.076477,192.927643 
	C213.137497,195.432693 213.197983,197.574234 213.258469,199.715759 
	C216.410217,198.772339 219.561951,197.828934 223.208725,196.737335 
	C224.451279,197.499008 226.626465,198.832397 228.801651,200.165787 
	C228.396332,203.222809 227.991013,206.279846 227.497406,210.002716 
	C222.037918,210.002716 216.462646,210.002716 210.334305,209.529510 
	C209.635117,201.933151 209.550644,194.807877 209.301788,187.688324 
	C209.235229,185.784241 208.666565,183.897690 208.328415,182.003098 
z"/>
<path fill="#6B2B0D" opacity="1.000000" stroke="none" 
	d="
M257.288147,184.551117 
	C252.398041,178.288773 252.970093,170.056458 259.044067,165.215149 
	C262.562653,162.410614 263.652679,159.097366 264.166107,154.983093 
	C264.403107,153.084106 265.861908,151.337585 266.766724,149.521927 
	C267.569611,149.653854 268.372498,149.785782 269.175385,149.917709 
	C269.599365,154.665680 270.036377,159.412552 270.434570,164.162689 
	C270.502014,164.966766 270.229187,165.825317 270.407990,166.589859 
	C271.532654,171.399231 272.740540,176.189163 273.878967,180.814926 
	C270.280884,183.275772 266.663940,185.768784 263.026825,188.232040 
	C258.741577,191.134262 259.501678,185.721115 257.288147,184.551117 
z"/>
<path fill="#1E1108" opacity="1.000000" stroke="none" 
	d="
M352.081573,199.399750 
	C349.306213,198.895905 346.420502,198.705002 343.794159,197.778671 
	C342.030945,197.156738 340.635193,195.493011 338.163757,193.595901 
	C336.932922,195.501175 335.081940,198.366348 333.099243,201.550568 
	C331.317230,200.815628 329.666931,199.761673 328.016663,198.707718 
	C328.603943,198.402649 329.191193,198.097580 329.778473,197.792511 
	C330.554626,196.042755 331.330780,194.293015 332.067322,192.246445 
	C332.027710,191.949631 332.216003,191.767838 332.386597,191.773743 
	C332.814148,191.667099 333.071075,191.554550 333.328003,191.442017 
	C332.925385,191.332397 332.522797,191.222778 332.053589,191.056824 
	C331.987000,191.000473 331.852722,190.889099 331.852722,190.889099 
	C332.173706,189.303848 332.494720,187.718597 333.038818,186.018280 
	C338.476562,186.994110 341.856476,185.259781 344.164429,180.170792 
	C346.903961,174.130188 350.468048,168.463547 354.052795,162.532944 
	C355.277679,163.291840 356.124512,164.152603 356.971375,165.013397 
	C356.165466,166.521103 355.359528,168.028809 354.777252,169.753143 
	C354.745239,170.233948 354.489624,170.498154 353.782227,171.159485 
	C349.735504,179.242447 346.140472,186.928284 342.545441,194.614136 
	C343.169739,195.042297 343.794037,195.470459 344.418365,195.898636 
	C347.592590,192.607086 350.766815,189.315521 353.941040,186.023987 
	C355.407654,186.902832 356.874298,187.781677 358.028931,188.697021 
	C357.393555,188.650238 357.070160,188.566956 356.746765,188.483688 
	C356.723755,188.582718 356.700745,188.681763 356.677704,188.780792 
	C357.108765,188.863724 357.539825,188.946640 357.970886,189.029572 
	C357.183350,189.954926 356.395813,190.880264 355.346100,191.697037 
	C354.873932,191.213028 354.663940,190.837570 354.453918,190.462112 
	C354.273071,190.678940 354.092224,190.895767 353.911377,191.112610 
	C354.273834,191.408600 354.636322,191.704605 354.998779,192.000610 
	C355.337524,193.977921 355.894226,195.955490 355.891754,197.932358 
	C355.890961,198.586746 354.449982,199.239334 353.140320,199.755219 
	C352.435974,199.545059 352.258789,199.472412 352.081573,199.399750 
z"/>
<path fill="#1E1108" opacity="1.000000" stroke="none" 
	d="
M422.072876,197.917114 
	C420.345734,197.951508 418.631744,197.651917 417.453918,197.446060 
	C413.336731,198.007874 409.536438,198.526459 405.120605,198.818024 
	C403.645386,198.386032 402.785675,198.181076 401.925995,197.976120 
	C401.925995,197.976120 402.025208,197.986069 402.081696,197.663162 
	C402.380432,195.767120 402.937164,194.158905 402.766815,192.631821 
	C402.626953,191.378418 401.622620,190.221466 401.001495,189.021759 
	C400.277100,189.688461 399.552704,190.355179 398.828339,191.021912 
	C397.371613,189.209122 395.914856,187.396332 394.625427,185.356796 
	C400.610443,187.553223 406.445099,189.792343 413.004883,186.352051 
	C412.750458,185.523514 412.396545,184.370926 411.883057,182.698669 
	C410.493286,184.010071 409.490295,184.956512 408.487305,185.902954 
	C408.225311,185.729553 407.963318,185.556168 407.701355,185.382767 
	C408.789978,183.463974 409.878601,181.545197 411.070068,179.304993 
	C412.938049,180.601151 414.703278,182.218704 416.520416,184.226410 
	C415.771576,185.612915 414.126343,186.806244 414.305450,187.574066 
	C415.582855,193.050919 411.677612,193.046051 408.278290,193.659363 
	C407.283630,193.838821 406.278748,193.961456 404.753143,194.188232 
	C407.187439,198.471161 410.683655,197.976761 412.936554,196.222595 
	C415.559845,194.180069 417.147125,190.807037 419.184021,188.011398 
	C420.151337,191.201981 421.118683,194.392563 422.072876,197.917114 
z"/>
<path fill="#1E1108" opacity="1.000000" stroke="none" 
	d="
M224.014160,153.025970 
	C219.910049,160.976944 215.805954,168.927917 211.361954,176.957520 
	C210.473022,175.908264 209.923981,174.780350 209.188614,173.396439 
	C212.131332,167.584747 215.561996,162.173935 218.316803,156.438522 
	C222.185333,148.384338 225.551666,140.088928 229.288208,131.594070 
	C229.632629,131.999252 229.821609,132.707077 230.005249,133.707443 
	C229.999893,134.000000 230.004257,133.993774 230.004272,133.993774 
	C229.277954,137.512085 228.551636,141.030396 227.571426,145.109344 
	C226.520462,147.431671 225.723419,149.193344 224.926361,150.955032 
	C224.926361,150.955032 224.987091,150.970856 224.736084,151.124115 
	C224.328110,151.860229 224.171143,152.443100 224.014160,153.025970 
z"/>
<path fill="#B1916A" opacity="1.000000" stroke="none" 
	d="
M397.925720,92.650848 
	C384.969971,92.494057 371.766754,91.798866 358.555542,91.571854 
	C348.790436,91.404053 339.011536,91.756638 329.247772,92.119102 
	C327.879486,92.169891 326.562439,93.601440 325.062378,94.744041 
	C324.339844,93.909805 323.776611,92.725365 323.213348,91.540932 
	C324.318268,91.018539 325.421082,90.046196 326.528381,90.040993 
	C344.089111,89.958542 361.653839,89.806160 379.209686,90.118210 
	C385.375793,90.227798 391.520416,91.546638 397.925720,92.650848 
z"/>
<path fill="#1E1108" opacity="1.000000" stroke="none" 
	d="
M229.030548,199.926849 
	C226.626465,198.832397 224.451279,197.499008 223.208725,196.737335 
	C219.561951,197.828934 216.410217,198.772339 213.258469,199.715759 
	C213.197983,197.574234 213.137497,195.432693 213.330841,192.672913 
	C213.747131,191.366989 213.909576,190.679352 214.072021,189.991699 
	C214.072037,189.991699 214.012161,190.015213 214.278229,189.867523 
	C214.723892,189.154572 214.903503,188.589310 215.083099,188.024048 
	C215.327011,187.741226 215.570908,187.458405 216.226761,186.829285 
	C217.077454,186.529388 217.516205,186.575790 217.954941,186.622192 
	C218.045776,187.147293 218.136612,187.672409 218.081451,188.887756 
	C217.649170,190.396759 217.362915,191.215500 217.076645,192.034241 
	C217.076645,192.034241 216.869461,192.261597 216.586960,192.662674 
	C215.917343,194.347122 215.530243,195.630493 215.143143,196.913879 
	C215.447769,197.122314 215.752411,197.330750 216.057037,197.539185 
	C217.003708,196.671356 217.950378,195.803513 218.897034,194.935699 
	C218.897049,194.935699 218.959961,194.954163 219.246460,194.792938 
	C220.407104,193.439865 221.281235,192.248016 222.155365,191.056183 
	C223.356491,189.970657 224.557602,188.885132 226.248810,187.471680 
	C227.403687,187.015335 228.068466,186.886902 228.733231,186.758469 
	C229.281952,190.193558 229.925064,193.618118 230.310394,197.071426 
	C230.402222,197.894257 229.632736,198.813187 229.030548,199.926849 
z"/>
<path fill="#AC8456" opacity="1.000000" stroke="none" 
	d="
M353.930908,185.553772 
	C350.766815,189.315521 347.592590,192.607086 344.418365,195.898636 
	C343.794037,195.470459 343.169739,195.042297 342.545441,194.614136 
	C346.140472,186.928284 349.735504,179.242447 353.587585,171.355057 
	C353.870026,175.796860 353.895386,180.440201 353.930908,185.553772 
z"/>
<path fill="#B1916A" opacity="1.000000" stroke="none" 
	d="
M202.378418,253.920776 
	C203.684540,253.551620 205.465302,252.984344 207.246948,252.981522 
	C237.117783,252.934204 266.988739,252.949738 296.859650,252.987808 
	C298.333374,252.989685 299.806671,253.324905 301.661957,253.673492 
	C268.980316,253.889801 235.916885,253.937546 202.378418,253.920776 
z"/>
<path fill="#B1916A" opacity="1.000000" stroke="none" 
	d="
M236.458038,94.961853 
	C234.235962,94.099022 232.388290,92.246765 230.441956,92.136536 
	C222.038437,91.660583 213.604401,91.566269 205.185745,91.672318 
	C203.814407,91.689590 202.464554,93.413536 201.040634,94.702347 
	C200.010773,94.023232 199.045074,92.990410 198.079376,91.957581 
	C199.240128,91.302498 200.393005,90.095001 201.562836,90.078362 
	C212.483536,89.923004 223.407364,89.927811 234.329742,89.986862 
	C237.942154,90.006386 239.490921,91.371117 236.458038,94.961853 
z"/>
<path fill="#AC8456" opacity="1.000000" stroke="none" 
	d="
M419.110535,187.689102 
	C417.147125,190.807037 415.559845,194.180069 412.936554,196.222595 
	C410.683655,197.976761 407.187439,198.471161 404.753143,194.188232 
	C406.278748,193.961456 407.283630,193.838821 408.278290,193.659363 
	C411.677612,193.046051 415.582855,193.050919 414.305450,187.574066 
	C414.126343,186.806244 415.771576,185.612915 416.796692,184.385345 
	C417.693024,185.225021 418.365051,186.295914 419.110535,187.689102 
z"/>
<path fill="#B1916A" opacity="1.000000" stroke="none" 
	d="
M428.066010,251.365662 
	C435.290558,254.254013 443.061310,254.333160 450.896759,254.026581 
	C454.147919,253.899368 455.259766,252.734650 453.206085,249.450562 
	C454.719238,250.211197 456.352081,251.270950 457.984924,252.330688 
	C456.343079,253.219803 454.736511,254.787979 453.052948,254.875504 
	C447.100037,255.185074 441.097076,255.293579 435.163147,254.833130 
	C432.779175,254.648132 430.524872,252.792145 428.066010,251.365662 
z"/>
<path fill="#B1916A" opacity="1.000000" stroke="none" 
	d="
M208.085266,114.451698 
	C208.423309,115.109489 208.925674,116.233238 208.928131,117.358070 
	C208.963715,133.664505 208.937256,149.971085 208.898544,166.277573 
	C208.897018,166.925507 208.626373,167.572784 208.323380,168.598419 
	C208.116119,150.957047 208.066605,132.937592 208.085266,114.451698 
z"/>
<path fill="#B1916A" opacity="1.000000" stroke="none" 
	d="
M228.760574,186.344910 
	C228.068466,186.886902 227.403687,187.015335 226.403259,187.199585 
	C226.342209,176.160446 226.647232,165.066010 226.831390,153.969559 
	C226.845535,153.117981 226.007080,152.252258 225.245636,151.174072 
	C225.723419,149.193344 226.520462,147.431671 227.565155,145.467224 
	C227.884964,156.221527 227.913132,167.179199 228.061600,178.135223 
	C228.096832,180.736740 228.535049,183.332779 228.760574,186.344910 
z"/>
<path fill="#B1916A" opacity="1.000000" stroke="none" 
	d="
M227.918869,238.576172 
	C227.552017,232.798248 227.193878,226.552887 226.970795,220.302704 
	C226.750763,214.137848 225.801620,213.009216 219.655029,213.060349 
	C216.039627,213.090408 212.428009,213.573608 208.412506,213.960571 
	C208.980621,213.384354 209.922333,212.163956 210.926193,212.110504 
	C215.070816,211.889786 219.240326,212.162003 223.389008,211.982697 
	C226.844589,211.833328 228.163849,213.237167 228.089600,216.659775 
	C227.934601,223.806107 228.007477,230.957367 227.918869,238.576172 
z"/>
<path fill="#B1916A" opacity="1.000000" stroke="none" 
	d="
M352.075623,199.892303 
	C352.258789,199.472412 352.435974,199.545059 352.827789,199.808746 
	C353.367157,205.565781 353.834625,211.128098 353.978241,216.698761 
	C354.135742,222.809128 353.994598,228.927216 353.918304,235.503326 
	C353.559601,233.190582 353.115326,230.422668 353.000488,227.641144 
	C352.625549,218.558380 352.370667,209.470657 352.075623,199.892303 
z"/>
<path fill="#B1916A" opacity="1.000000" stroke="none" 
	d="
M208.154205,182.319229 
	C208.666565,183.897690 209.235229,185.784241 209.301788,187.688324 
	C209.550644,194.807877 209.635117,201.933151 209.868347,209.454269 
	C209.160110,209.852249 208.364777,209.852249 207.147751,209.852249 
	C207.147751,201.864639 207.111542,194.093063 207.184998,186.322525 
	C207.196640,185.091064 207.702591,183.864304 208.154205,182.319229 
z"/>
<path fill="#B1916A" opacity="1.000000" stroke="none" 
	d="
M325.448792,253.868179 
	C330.901764,253.515503 336.817902,253.121109 342.739655,252.997864 
	C349.188385,252.863647 355.642334,252.981064 362.564240,253.012695 
	C361.697662,253.363937 360.362183,253.968491 359.023834,253.974915 
	C347.987640,254.028000 336.950958,253.970139 325.448792,253.868179 
z"/>
<path fill="#B1916A" opacity="1.000000" stroke="none" 
	d="
M429.332794,141.946075 
	C429.660339,135.364410 430.320923,128.567184 430.986084,121.310822 
	C433.362793,127.989853 431.801727,134.878418 429.332794,141.946075 
z"/>
<path fill="#AC8456" opacity="1.000000" stroke="none" 
	d="
M398.978821,191.358536 
	C399.552704,190.355179 400.277100,189.688461 401.001495,189.021759 
	C401.622620,190.221466 402.626953,191.378418 402.766815,192.631821 
	C402.937164,194.158905 402.380432,195.767120 402.076813,197.712784 
	C401.053406,195.955261 400.091370,193.825211 398.978821,191.358536 
z"/>
<path fill="#B1916A" opacity="1.000000" stroke="none" 
	d="
M416.937561,234.402740 
	C422.177368,235.576126 421.331085,240.698975 422.965454,244.795471 
	C421.002502,241.717743 418.998627,238.243317 416.937561,234.402740 
z"/>
<path fill="#B1916A" opacity="1.000000" stroke="none" 
	d="
M230.258026,100.966400 
	C229.857056,97.412239 231.724426,95.446426 235.789383,95.102844 
	C234.300873,96.986191 232.428162,98.882080 230.258026,100.966400 
z"/>
<path fill="#B1916A" opacity="1.000000" stroke="none" 
	d="
M418.969421,100.662949 
	C416.881683,99.891945 414.652191,98.797607 412.218445,97.439178 
	C414.285370,98.229935 416.556519,99.284775 418.969421,100.662949 
z"/>
<path fill="#B1916A" opacity="1.000000" stroke="none" 
	d="
M325.046875,95.363907 
	C326.901398,96.498062 328.912537,97.933861 330.959686,99.739532 
	C329.064941,98.628128 327.134216,97.146843 325.046875,95.363907 
z"/>
<path fill="#B1916A" opacity="1.000000" stroke="none" 
	d="
M228.845337,114.634949 
	C228.767639,111.623192 228.743759,108.145668 228.897034,104.308907 
	C229.015839,107.356171 228.957504,110.762672 228.845337,114.634949 
z"/>
<path fill="#B1916A" opacity="1.000000" stroke="none" 
	d="
M230.861786,246.611542 
	C227.185547,246.223251 228.251190,243.126831 227.967178,240.258636 
	C228.887421,241.978897 229.802719,244.130371 230.861786,246.611542 
z"/>
<path fill="#AC8456" opacity="1.000000" stroke="none" 
	d="
M401.993500,198.327484 
	C402.785675,198.181076 403.645386,198.386032 404.767487,198.811218 
	C404.718719,199.867294 404.407501,200.703140 404.025391,201.867615 
	C403.323334,201.023773 402.692169,199.851303 401.993500,198.327484 
z"/>
<path fill="#B1916A" opacity="1.000000" stroke="none" 
	d="
M332.116821,104.386024 
	C332.451080,106.383575 332.718781,108.813698 332.972046,111.669891 
	C332.655182,109.670174 332.352753,107.244392 332.116821,104.386024 
z"/>
<path fill="#B1916A" opacity="1.000000" stroke="none" 
	d="
M333.132629,114.451523 
	C333.290375,116.112007 333.380798,118.202126 333.331696,120.619522 
	C333.149902,118.924911 333.107605,116.903046 333.132629,114.451523 
z"/>
<path fill="#B1916A" opacity="1.000000" stroke="none" 
	d="
M422.969421,103.650032 
	C422.170654,103.461288 421.231323,102.973213 420.149658,102.183441 
	C420.947815,102.371399 421.888336,102.861053 422.969421,103.650032 
z"/>
<path fill="#B1916A" opacity="1.000000" stroke="none" 
	d="
M430.891510,119.664696 
	C430.551361,118.884369 430.276398,117.723381 429.998596,116.197983 
	C430.316101,116.983727 430.636414,118.133881 430.891510,119.664696 
z"/>
<path fill="#B1916A" opacity="1.000000" stroke="none" 
	d="
M424.937775,248.372162 
	C425.516144,248.517166 426.137177,249.013168 426.867981,249.796814 
	C426.311951,249.630707 425.646210,249.176926 424.937775,248.372162 
z"/>
<path fill="#B1916A" opacity="1.000000" stroke="none" 
	d="
M234.864380,248.631104 
	C234.238174,248.729752 233.449722,248.542175 232.404922,248.203918 
	C232.999756,248.150467 233.850937,248.247665 234.864380,248.631104 
z"/>
<path fill="#B1916A" opacity="1.000000" stroke="none" 
	d="
M423.084961,246.120758 
	C423.686066,246.368744 424.237640,246.941650 424.883240,247.804260 
	C424.329987,247.544525 423.682709,246.995087 423.084961,246.120758 
z"/>
<path fill="#B1916A" opacity="1.000000" stroke="none" 
	d="
M423.271667,151.960541 
	C423.499786,151.465866 424.007355,150.853195 424.800049,150.126343 
	C424.573853,150.622299 424.062500,151.232437 423.271667,151.960541 
z"/>
<path fill="#B1916A" opacity="1.000000" stroke="none" 
	d="
M428.334656,144.958374 
	C428.214630,144.556137 428.383575,144.011780 428.695984,143.218018 
	C428.767517,143.584503 428.695557,144.200378 428.334656,144.958374 
z"/>
<path fill="#B1916A" opacity="1.000000" stroke="none" 
	d="
M362.900940,250.766190 
	C362.588165,250.620148 362.335724,250.145554 361.996002,249.416489 
	C362.259552,249.587234 362.610413,250.012436 362.900940,250.766190 
z"/>
<path fill="#B1916A" opacity="1.000000" stroke="none" 
	d="
M425.310455,149.943359 
	C425.256805,149.534744 425.497406,148.991669 425.908752,148.203522 
	C425.921265,148.575256 425.762970,149.192093 425.310455,149.943359 
z"/>
<path fill="#B1916A" opacity="1.000000" stroke="none" 
	d="
M331.143188,101.285934 
	C331.428925,101.500999 331.655060,102.042946 331.935974,102.874893 
	C331.688354,102.647537 331.385986,102.130173 331.143188,101.285934 
z"/>
<path fill="#B1916A" opacity="1.000000" stroke="none" 
	d="
M229.348145,103.960518 
	C229.210037,103.538254 229.369797,102.957123 229.687454,102.114594 
	C229.778900,102.502678 229.712448,103.152168 229.348145,103.960518 
z"/>
<path fill="#B1916A" opacity="1.000000" stroke="none" 
	d="
M424.899902,106.697388 
	C424.607880,106.490776 424.378052,105.967896 424.095642,105.162399 
	C424.349426,105.380226 424.655762,105.880676 424.899902,106.697388 
z"/>
<path fill="#1E1108" opacity="1.000000" stroke="none" 
	d="
M331.933105,192.040054 
	C331.668976,191.829117 331.627716,191.514526 331.783752,191.037918 
	C331.852722,190.889099 331.987000,191.000473 332.068909,191.221130 
	C332.150848,191.441788 332.216003,191.767838 332.216003,191.767838 
	C332.216003,191.767838 332.027710,191.949631 331.933105,192.040054 
z"/>
<path fill="#B1916A" opacity="1.000000" stroke="none" 
	d="
M200.064789,254.248016 
	C200.176468,254.009293 200.382706,253.991379 200.900665,253.971542 
	C200.861374,254.136032 200.510361,254.302414 200.064789,254.248016 
z"/>
<path fill="#B1916A" opacity="1.000000" stroke="none" 
	d="
M429.867432,114.776741 
	C429.649048,114.806847 429.472656,114.565933 429.190247,114.127411 
	C429.345245,114.132065 429.620331,114.324036 429.867432,114.776741 
z"/>
<path fill="#1E1108" opacity="1.000000" stroke="none" 
	d="
M229.996460,134.002441 
	C229.993011,134.004898 230.037888,134.056702 230.021072,134.025238 
	C230.004257,133.993774 229.999893,134.000000 229.996460,134.002441 
z"/>
<path fill="#B1916A" opacity="1.000000" stroke="none" 
	d="
M199.055313,253.229492 
	C199.262054,253.167206 199.495697,253.393860 199.852478,253.839783 
	C199.699890,253.856079 199.402100,253.675858 199.055313,253.229492 
z"/>
<path fill="#B1916A" opacity="1.000000" stroke="none" 
	d="
M363.257141,252.937286 
	C363.017975,252.829819 362.996857,252.624496 362.971252,252.108398 
	C363.136230,252.144897 363.305725,252.492157 363.257141,252.937286 
z"/>
<path fill="#B1916A" opacity="1.000000" stroke="none" 
	d="
M427.002014,250.264145 
	C427.183990,250.220245 427.442688,250.442841 427.851868,250.873779 
	C427.694489,250.898270 427.386627,250.714462 427.002014,250.264145 
z"/>
<path fill="#B1916A" opacity="1.000000" stroke="none" 
	d="
M426.260986,148.000580 
	C426.151703,147.814774 426.323273,147.546692 426.671326,147.109161 
	C426.725708,147.253052 426.623749,147.579254 426.260986,148.000580 
z"/>
<path fill="#1E1108" opacity="1.000000" stroke="none" 
	d="
M330.488220,193.504776 
	C330.477631,193.477997 330.498779,193.531555 330.488220,193.504776 
z"/>
<path fill="#B1916A" opacity="1.000000" stroke="none" 
	d="
M231.865387,247.648941 
	C231.731720,247.672928 231.550354,247.489258 231.240143,247.165741 
	C231.414444,247.048386 231.649902,247.186859 231.865387,247.648941 
z"/>
<path fill="#B1916A" opacity="1.000000" stroke="none" 
	d="
M424.025208,104.738037 
	C423.844086,104.780113 423.584320,104.546661 423.155701,104.112396 
	C423.306732,104.095222 423.626617,104.278870 424.025208,104.738037 
z"/>
<path fill="#000000" opacity="1.000000" stroke="none" 
	d="
M357.441589,165.053986 
	C356.124512,164.152603 355.277679,163.291840 354.204285,162.230362 
	C353.977783,140.346466 353.977783,118.663254 353.977783,96.411270 
	C371.617523,94.203133 388.173584,95.948143 401.778442,108.515556 
	C406.607941,112.976768 409.106293,119.302345 409.915161,125.952736 
	C411.621094,139.978577 408.731812,152.500519 395.439270,159.719925 
	C389.926605,162.713928 383.207428,163.962921 376.875610,164.836868 
	C370.660889,165.694641 364.241425,165.069153 357.441589,165.053986 
z"/>
<path fill="#AC8456" opacity="1.000000" stroke="none" 
	d="
M218.614151,194.777527 
	C217.950378,195.803513 217.003708,196.671356 216.057037,197.539185 
	C215.752411,197.330750 215.447769,197.122314 215.143143,196.913879 
	C215.530243,195.630493 215.917343,194.347122 216.567841,192.815277 
	C217.331238,193.250992 217.831253,193.935181 218.614151,194.777527 
z"/>
<path fill="#AC8456" opacity="1.000000" stroke="none" 
	d="
M221.874573,191.218094 
	C221.281235,192.248016 220.407104,193.439865 219.238281,194.761200 
	C219.826996,193.720459 220.710373,192.550232 221.874573,191.218094 
z"/>
<path fill="#AC8456" opacity="1.000000" stroke="none" 
	d="
M217.320099,191.910461 
	C217.362915,191.215500 217.649170,190.396759 218.097275,189.289719 
	C218.027252,189.929840 217.795410,190.858246 217.320099,191.910461 
z"/>
<path fill="#B1916A" opacity="1.000000" stroke="none" 
	d="
M224.180542,152.784302 
	C224.171143,152.443100 224.328110,151.860229 224.731033,151.093140 
	C224.766968,151.453476 224.556946,151.998062 224.180542,152.784302 
z"/>
<path fill="#AC8456" opacity="1.000000" stroke="none" 
	d="
M217.770966,186.525635 
	C217.516205,186.575790 217.077454,186.529388 216.316162,186.560623 
	C216.524734,186.568527 217.055847,186.498810 217.770966,186.525635 
z"/>
<path fill="#AC8456" opacity="1.000000" stroke="none" 
	d="
M214.896820,188.246826 
	C214.903503,188.589310 214.723892,189.154572 214.296646,189.893890 
	C214.269516,189.535156 214.490021,189.002380 214.896820,188.246826 
z"/>
<path fill="#AC8456" opacity="1.000000" stroke="none" 
	d="
M213.884369,190.284302 
	C213.909576,190.679352 213.747131,191.366989 213.330322,192.309372 
	C213.282883,191.901703 213.489792,191.239304 213.884369,190.284302 
z"/>
<path fill="#000000" opacity="1.000000" stroke="none" 
	d="
M354.999390,192.000305 
	C354.636322,191.704605 354.273834,191.408600 353.911377,191.112610 
	C354.092224,190.895767 354.273071,190.678940 354.453918,190.462112 
	C354.663940,190.837570 354.873932,191.213028 355.042572,191.793930 
	C355.001221,191.999390 355.000000,192.000000 354.999390,192.000305 
z"/>
<path fill="#000000" opacity="1.000000" stroke="none" 
	d="
M357.982239,189.017380 
	C357.539825,188.946640 357.108765,188.863724 356.677704,188.780792 
	C356.700745,188.681763 356.723755,188.582718 356.746765,188.483688 
	C357.070160,188.566956 357.393555,188.650238 357.864349,188.855957 
	C358.011749,188.978394 357.993561,189.005188 357.982239,189.017380 
z"/>
<path fill="#000000" opacity="1.000000" stroke="none" 
	d="
M332.386597,191.773743 
	C332.216003,191.767838 332.150848,191.441788 332.135498,191.277466 
	C332.522797,191.222778 332.925385,191.332397 333.328003,191.442017 
	C333.071075,191.554550 332.814148,191.667099 332.386597,191.773743 
z"/>
</svg>